<svg id="Capa_1" enable-background="new 0 0 512 512" height="512" viewBox="0 0 512 512" width="512" xmlns="http://www.w3.org/2000/svg"><g><path d="m508.007 197.814c-.693-.749-6.035-6.417-15.993-14.611 7.204-5.907 14.191-14.39 18.215-26.451 2.622-7.858-1.624-16.354-9.482-18.977-7.859-2.622-16.354 1.624-18.976 9.482-3.166 9.488-10.354 14.56-15.534 17.088-7.344-4.8-15.659-9.798-24.933-14.77 10.248-8.354 21.02-20.992 28.623-40.001 3.077-7.692-.665-16.421-8.357-19.498-7.693-3.077-16.421.665-19.498 8.357-9.578 23.948-25.511 32.92-32.953 35.927-8.137-3.364-16.777-6.588-25.915-9.59 10.235-9.335 19.694-22.774 23.503-41.825 1.625-8.123-3.644-16.025-11.767-17.65-8.122-1.623-16.026 3.643-17.65 11.768-4.914 24.57-25.578 34.247-33.397 37.075-9.909-2.131-20.069-3.954-31.683-5.487 6.243-8.449 11.645-19.439 14.498-33.705 1.625-8.123-3.644-16.025-11.767-17.65-8.124-1.626-16.026 3.644-17.65 11.768-5.059 25.293-21.817 33.968-27.303 36.168-32.372-1.024-64.305 1.482-94.586 7.401-111.708 21.838-169.023 82.604-171.409 85.181-4.671 5.045-5.314 12.621-1.56 18.381.809 1.24 20.27 30.712 61.355 60.021 109.596 78.183 273.653 79.021 384.423 0 41.085-29.309 60.546-58.78 61.355-60.021 3.755-5.76 3.112-13.336-1.559-18.381zm-181.609-56.549c17.187 18.088 26.602 41.619 26.602 66.739 0 53.486-43.514 97-97 97s-97-43.514-97-97c0-25.12 9.415-48.652 26.603-66.739 44.702-8.152 93.91-8.551 140.795 0zm-291.202 68.441c15.771-13.505 51.666-40.079 106.663-57.58-21.637 44.095-16.234 99.105 17.987 138.753-51.726-16.241-95.905-46.841-124.65-81.173zm316.958 81.174c34.162-39.58 39.652-94.602 17.987-138.754 54.994 17.5 90.889 44.073 106.663 57.579-28.755 34.348-72.871 64.916-124.65 81.175z"/><path d="m201.134 211.876c1.877 27.194 23.8 49.117 50.997 50.995 34.365 2.367 61.745-26.628 58.63-60.032-1.246-13.337-11.74-23.584-24.867-24.729-1.145-13.126-11.392-23.62-24.736-24.867-33.338-3.107-62.4 24.214-60.024 58.633zm79.866-3.979c0 7.284-2.923 13.698-7.948 18.389-15.438 14.412-40.561 4.21-41.989-16.476-1.004-14.558 10.386-26.806 25.045-26.806 1.167 13.189 11.704 23.726 24.892 24.893z"/><path d="m16.016 150.982c3.556 0 7.127-1.255 9.989-3.802.18-.16 18.434-16.231 53.838-32.58 32.645-15.073 87.005-33.486 160.588-35.602 8.281-.238 14.801-7.145 14.562-15.425-.238-8.282-7.165-14.808-15.425-14.563-152.538 4.386-230.366 72.931-233.604 75.847-10.201 9.184-3.614 26.125 10.052 26.125z"/><path d="m85.394 365.398-19.78 19.779-.16-.801c-1.625-8.123-9.528-13.389-17.65-11.768-8.123 1.625-13.392 9.527-11.767 17.65 6.065 30.327 5.682 29.47 6.929 31.99 2.14 4.324 6.143 7.193 10.494 8.062 29.266 5.812 28.844 5.951 31.243 5.951 7.003 0 13.267-4.931 14.692-12.062 1.625-8.123-3.643-16.025-11.767-17.65l-.801-.16 19.779-19.779c5.858-5.857 5.858-15.355 0-21.213-5.857-5.858-15.354-5.858-21.212.001z"/><path d="m464.197 372.609c-8.122-1.621-16.026 3.644-17.65 11.768l-.16.801-19.78-19.779c-5.857-5.857-15.355-5.857-21.213 0s-5.858 15.355 0 21.213l19.779 19.779-.801.16c-8.124 1.625-13.392 9.527-11.767 17.65 1.624 8.12 9.52 13.391 17.65 11.768 38.617-7.724 25.382-5.114 28.229-5.646 4.606-.938 8.293-3.815 10.341-7.65 1.485-2.771 1.179-2.622 7.138-32.413 1.626-8.124-3.643-16.026-11.766-17.651z"/><path d="m271.68 419.524-.68.453v-27.973c0-8.284-6.716-15-15-15s-15 6.716-15 15v27.973l-.68-.453c-6.891-4.596-16.206-2.733-20.801 4.16s-2.732 16.206 4.161 20.801c26.362 17.575 25.172 16.928 27.515 17.719 4.423 1.498 9.241.852 13.159-1.741 2.332-1.614-8.734 5.823 23.967-15.978 6.893-4.595 8.756-13.908 4.161-20.801-4.597-6.894-13.911-8.757-20.802-4.16z"/></g></svg>