<?xml version="1.0" encoding="iso-8859-1"?>
<!-- Generator: Adobe Illustrator 19.0.0, SVG Export Plug-In . SVG Version: 6.00 Build 0)  -->
<svg version="1.1" id="Layer_1" xmlns="http://www.w3.org/2000/svg" xmlns:xlink="http://www.w3.org/1999/xlink" x="0px" y="0px"
	 viewBox="0 0 512 512" style="enable-background:new 0 0 512 512;" xml:space="preserve">
<g>
	<g>
		<g>
			<path d="M34.133,221.867C15.309,221.867,0,237.175,0,256s15.309,34.133,34.133,34.133c18.825,0,34.133-15.309,34.133-34.133
				S52.958,221.867,34.133,221.867z"/>
			<path d="M477.867,221.867c-18.825,0-34.133,15.309-34.133,34.133s15.309,34.133,34.133,34.133S512,274.825,512,256
				S496.691,221.867,477.867,221.867z"/>
			<path d="M256,85.333c-91.23,0-165.743,72.004-170.231,162.133h340.463C421.743,157.338,347.23,85.333,256,85.333z"/>
			<path d="M256,426.667c91.23,0,165.743-72.004,170.232-162.133H85.769C90.257,354.662,164.77,426.667,256,426.667z"/>
		</g>
	</g>
</g>
<g>
</g>
<g>
</g>
<g>
</g>
<g>
</g>
<g>
</g>
<g>
</g>
<g>
</g>
<g>
</g>
<g>
</g>
<g>
</g>
<g>
</g>
<g>
</g>
<g>
</g>
<g>
</g>
<g>
</g>
</svg>
